<svg width="240" height="80" viewBox="0 0 240 80" fill="none" xmlns="http://www.w3.org/2000/svg">
<rect width="240" height="80" fill="white"/>
<path d="M141.02 17.5756C131.184 17.5756 122.353 22.6937 122.353 32.0855C122.353 42.902 137.953 43.6406 137.953 49.0225C137.953 51.2913 135.309 53.3491 130.867 53.3491C124.521 53.3491 119.762 50.4999 119.762 50.4999L117.753 59.9972C117.753 59.9972 123.199 62.4243 130.497 62.4243C141.285 62.4243 149.746 57.0953 149.746 47.4924C149.746 36.0955 134.093 35.3568 134.093 30.3443C134.093 28.5504 136.261 26.5981 140.703 26.5981C145.727 26.5981 149.851 28.6559 149.851 28.6559L151.861 19.4751C151.808 19.4751 147.313 17.5756 141.02 17.5756ZM50.9107 18.2615L50.6463 19.6334C50.6463 19.6334 54.771 20.3721 58.5256 21.9022C63.3378 23.6434 63.6551 24.6459 64.5012 27.7589L73.3323 61.6857H85.1777L103.316 18.2615H91.5235L79.8367 47.8089L75.0774 22.7464C74.6544 19.8972 72.4334 18.2615 69.6835 18.2615H50.9107ZM108.075 18.2615L98.8211 61.6857H110.085L119.286 18.2615H108.075ZM170.792 18.2615C168.095 18.2615 166.668 19.6862 165.61 22.2188L149.111 61.6857H160.904L163.178 55.0903H177.561L178.936 61.6857H189.354L180.311 18.2615H170.792ZM172.326 30.0277L175.816 46.3316H166.456L172.326 30.0277Z" fill="#1434CB"/>
</svg>
